<svg version="1.1" id="Layer_1" xmlns="http://www.w3.org/2000/svg" xmlns:xlink="http://www.w3.org/1999/xlink" x="0px" y="0px"
	 width="100%" viewBox="0 0 339 339" enable-background="new 0 0 339 339" xml:space="preserve">
<path fill="#D9D9D9" opacity="1.000000" stroke="none" 
	d="
M233.000000,340.000000 
	C155.333344,340.000000 78.166695,340.000000 1.000031,340.000000 
	C1.000021,227.000031 1.000021,114.000069 1.000010,1.000077 
	C113.999947,1.000051 226.999893,1.000051 339.999878,1.000026 
	C339.999939,113.999931 339.999939,226.999863 339.999969,339.999878 
	C304.500000,340.000000 269.000000,340.000000 233.000000,340.000000 
M50.944229,253.298645 
	C54.023857,263.278046 60.536079,267.994965 71.434380,267.997406 
	C137.082932,268.012085 202.731491,268.009491 268.380035,268.002777 
	C283.497009,268.001221 290.813263,260.728119 290.817505,245.660919 
	C290.831573,195.508087 290.832306,145.355255 290.816895,95.202423 
	C290.812347,80.409843 283.432037,72.993164 268.745728,72.991150 
	C203.263794,72.982162 137.781860,72.982483 72.299927,72.990891 
	C57.757973,72.992752 49.999691,80.668953 49.994427,95.112732 
	C49.976147,145.265564 49.976513,195.418411 50.021385,245.571198 
	C50.023445,247.871918 50.525921,250.172180 50.944229,253.298645 
z"/>
<path fill="#F67275" opacity="1.000000" stroke="none" 
	d="
M50.869781,252.885651 
	C50.525921,250.172180 50.023445,247.871918 50.021385,245.571198 
	C49.976513,195.418411 49.976147,145.265564 49.994427,95.112732 
	C49.999691,80.668953 57.757973,72.992752 72.299927,72.990891 
	C137.781860,72.982483 203.263794,72.982162 268.745728,72.991150 
	C283.432037,72.993164 290.812347,80.409843 290.816895,95.202423 
	C290.832306,145.355255 290.831573,195.508087 290.817505,245.660919 
	C290.813263,260.728119 283.497009,268.001221 268.380035,268.002777 
	C202.731491,268.009491 137.082932,268.012085 71.434380,267.997406 
	C60.536079,267.994965 54.023857,263.278046 50.869781,252.885651 
M132.500000,254.994659 
	C177.830170,254.994507 223.160339,254.997803 268.490509,254.990860 
	C276.084839,254.989700 277.816376,253.425781 277.824402,246.106750 
	C277.864410,209.609329 277.795288,173.111679 277.915894,136.614609 
	C277.928345,132.849792 276.728485,131.809006 273.037903,131.814117 
	C204.709442,131.909042 136.380753,131.919220 68.052383,131.796249 
	C63.905476,131.788788 63.077602,133.271515 63.089157,137.024323 
	C63.200470,173.188141 63.143417,209.352463 63.166515,245.516602 
	C63.171444,253.232224 64.937096,254.984283 72.504097,254.989410 
	C92.169388,255.002716 111.834702,254.994370 132.500000,254.994659 
M263.429932,86.049751 
	C200.604691,86.049744 137.779449,86.049576 74.954201,86.050720 
	C73.454475,86.050751 71.946678,85.968094 70.456551,86.091660 
	C66.206436,86.444077 63.727352,88.376213 63.834846,93.075684 
	C63.991047,99.904510 64.154030,106.755562 63.770409,113.566521 
	C63.513260,118.132034 65.183434,119.106201 69.466263,119.081680 
	C99.628052,118.908981 129.791306,118.990227 159.954086,118.990120 
	C197.449265,118.989983 234.944611,118.937386 272.439362,119.064423 
	C276.502441,119.078194 278.123566,117.967857 277.919373,113.728645 
	C277.623047,107.577034 277.880432,101.400261 277.832428,95.234756 
	C277.779938,88.500244 275.483093,86.172096 268.899933,86.055496 
	C267.400574,86.028938 265.900391,86.050461 263.429932,86.049751 
z"/>
<path fill="#D9D7D7" opacity="1.000000" stroke="none" 
	d="
M132.000000,254.994659 
	C111.834702,254.994370 92.169388,255.002716 72.504097,254.989410 
	C64.937096,254.984283 63.171444,253.232224 63.166515,245.516602 
	C63.143417,209.352463 63.200470,173.188141 63.089157,137.024323 
	C63.077602,133.271515 63.905476,131.788788 68.052383,131.796249 
	C136.380753,131.919220 204.709442,131.909042 273.037903,131.814117 
	C276.728485,131.809006 277.928345,132.849792 277.915894,136.614609 
	C277.795288,173.111679 277.864410,209.609329 277.824402,246.106750 
	C277.816376,253.425781 276.084839,254.989700 268.490509,254.990860 
	C223.160339,254.997803 177.830170,254.994507 132.000000,254.994659 
M104.999260,187.558350 
	C105.011932,187.728180 105.024612,187.898026 105.098869,188.758041 
	C107.339714,192.254868 109.522461,195.790543 111.831711,199.241592 
	C120.558022,212.282578 120.653564,212.330780 111.500618,224.877716 
	C110.363510,226.436447 107.876663,227.747147 105.942390,227.854034 
	C99.297905,228.221191 92.619987,227.932312 85.956894,228.032257 
	C81.833099,228.094101 79.213356,230.330063 79.182121,234.460373 
	C79.150650,238.620880 81.825424,240.716217 85.903908,240.971802 
	C87.231903,241.055023 88.568878,240.999771 89.901741,240.999786 
	C143.717941,241.000610 197.534134,241.000626 251.350327,240.999603 
	C252.683167,240.999573 254.021408,241.060959 255.347839,240.965073 
	C259.422363,240.670532 262.021790,238.625854 261.926025,234.375809 
	C261.830719,230.147018 259.162842,228.158554 255.088089,228.024506 
	C252.258606,227.931442 249.423843,227.996231 246.591431,227.995667 
	C238.063293,227.993988 232.314865,223.148636 230.553650,214.469940 
	C230.851227,214.346237 231.148010,214.116608 231.446503,214.114365 
	C238.776077,214.059296 246.106705,214.086105 253.435272,213.974716 
	C259.230499,213.886642 262.144745,211.480698 261.983307,207.152985 
	C261.827271,202.971451 259.164459,201.020187 253.462570,200.991562 
	C247.593262,200.962097 241.723663,200.985016 234.822052,200.985016 
	C236.788391,198.000549 238.085861,196.103638 239.306458,194.158463 
	C240.541351,192.190506 241.700134,190.174774 242.971802,187.610077 
	C242.985123,187.419266 242.998459,187.228439 243.936340,186.946594 
	C247.097275,186.928711 250.259598,186.964035 253.418839,186.881454 
	C259.252289,186.728958 262.039093,184.489761 261.999023,180.089569 
	C261.960480,175.862503 259.420807,173.972733 253.622131,173.968948 
	C230.994919,173.954178 208.367722,173.961029 185.740509,173.961151 
	C152.964340,173.961334 120.187988,173.920013 87.412369,174.055908 
	C85.137619,174.065323 82.238083,174.789825 80.787971,176.296890 
	C79.537796,177.596161 78.929863,181.191055 79.848495,182.509781 
	C81.257172,184.531952 84.120735,186.431854 86.542534,186.681900 
	C92.637505,187.311157 98.830742,186.988586 104.999260,187.558350 
M213.500000,145.997025 
	C200.352829,145.997284 187.205276,145.947708 174.058884,146.048630 
	C171.955917,146.064774 169.292480,146.098526 167.900085,147.298431 
	C166.130493,148.823380 164.118149,151.845261 164.546997,153.673721 
	C165.037125,155.763428 167.925598,157.521576 170.108261,158.885590 
	C171.194168,159.564209 173.031509,159.057678 174.528931,159.057922 
	C198.326981,159.061752 222.125015,159.063400 245.923065,159.058243 
	C249.417542,159.057480 253.026062,159.538208 256.363892,158.804642 
	C258.378937,158.361801 260.967712,156.281158 261.479065,154.432983 
	C261.996124,152.564133 260.877045,149.388687 259.359589,148.042801 
	C257.731110,146.598419 254.811172,146.116043 252.442566,146.082611 
	C239.797150,145.904160 227.147919,145.997604 213.500000,145.997025 
z"/>
<path fill="#D9D7D7" opacity="1.000000" stroke="none" 
	d="
M263.915253,86.049805 
	C265.900391,86.050461 267.400574,86.028938 268.899933,86.055496 
	C275.483093,86.172096 277.779938,88.500244 277.832428,95.234756 
	C277.880432,101.400261 277.623047,107.577034 277.919373,113.728645 
	C278.123566,117.967857 276.502441,119.078194 272.439362,119.064423 
	C234.944611,118.937386 197.449265,118.989983 159.954086,118.990120 
	C129.791306,118.990227 99.628052,118.908981 69.466263,119.081680 
	C65.183434,119.106201 63.513260,118.132034 63.770409,113.566521 
	C64.154030,106.755562 63.991047,99.904510 63.834846,93.075684 
	C63.727352,88.376213 66.206436,86.444077 70.456551,86.091660 
	C71.946678,85.968094 73.454475,86.050751 74.954201,86.050720 
	C137.779449,86.049576 200.604691,86.049744 263.915253,86.049805 
M74.026192,107.463066 
	C76.920685,110.725571 80.782379,111.223328 83.795631,108.759979 
	C85.807007,107.115685 87.314125,103.473656 87.084152,100.901123 
	C86.896782,98.805061 84.046326,95.776550 81.923653,95.333847 
	C79.518372,94.832191 76.058464,96.094780 74.049797,97.776199 
	C71.226112,100.139862 71.521904,103.683350 74.026192,107.463066 
M103.144524,95.147133 
	C99.539474,96.972122 96.850456,99.838470 98.354424,103.854240 
	C99.257408,106.265327 101.926422,108.951355 104.315826,109.589806 
	C106.442856,110.158142 110.136032,108.760765 111.556801,106.973778 
	C112.958717,105.210510 113.169106,101.642715 112.487564,99.273560 
	C111.359940,95.353760 107.762367,94.518265 103.144524,95.147133 
M129.930374,109.930130 
	C136.252563,109.896439 139.479553,106.960464 139.052124,101.630997 
	C138.688660,97.098854 134.941498,93.823967 130.429398,95.163208 
	C127.994812,95.885811 125.184319,98.338539 124.313278,100.671494 
	C122.780609,104.776550 125.219292,107.944878 129.930374,109.930130 
z"/>
<path fill="#F67275" opacity="1.000000" stroke="none" 
	d="
M242.892242,188.179993 
	C241.700134,190.174774 240.541351,192.190506 239.306458,194.158463 
	C238.085861,196.103638 236.788391,198.000549 234.822052,200.985016 
	C241.723663,200.985016 247.593262,200.962097 253.462570,200.991562 
	C259.164459,201.020187 261.827271,202.971451 261.983307,207.152985 
	C262.144745,211.480698 259.230499,213.886642 253.435272,213.974716 
	C246.106705,214.086105 238.776077,214.059296 231.446503,214.114365 
	C231.148010,214.116608 230.851227,214.346237 230.554993,214.473145 
	C232.314865,223.148636 238.063293,227.993988 246.591431,227.995667 
	C249.423843,227.996231 252.258606,227.931442 255.088089,228.024506 
	C259.162842,228.158554 261.830719,230.147018 261.926025,234.375809 
	C262.021790,238.625854 259.422363,240.670532 255.347839,240.965073 
	C254.021408,241.060959 252.683167,240.999573 251.350327,240.999603 
	C197.534134,241.000626 143.717941,241.000610 89.901741,240.999786 
	C88.568878,240.999771 87.231903,241.055023 85.903908,240.971802 
	C81.825424,240.716217 79.150650,238.620880 79.182121,234.460373 
	C79.213356,230.330063 81.833099,228.094101 85.956894,228.032257 
	C92.619987,227.932312 99.297905,228.221191 105.942390,227.854034 
	C107.876663,227.747147 110.363510,226.436447 111.500618,224.877716 
	C120.653564,212.330780 120.558022,212.282578 111.831711,199.241592 
	C109.522461,195.790543 107.339714,192.254868 105.533432,188.410278 
	C151.609421,188.101654 197.250824,188.140823 242.892242,188.179993 
M156.237259,204.006042 
	C155.949921,204.013428 155.662567,204.020813 155.426956,203.277222 
	C154.476410,202.522980 153.548233,201.222778 152.568405,201.182587 
	C151.744812,201.148804 150.334793,202.445770 150.090439,203.388474 
	C148.643295,208.971237 147.396500,214.609116 146.213089,220.255844 
	C145.526779,223.530594 147.264572,224.837097 150.364273,224.758804 
	C151.477921,224.730682 152.645264,224.478363 153.695236,224.724518 
	C156.746994,225.440002 157.731796,224.244476 158.168549,221.247391 
	C158.952484,215.867798 160.348206,210.579956 161.314270,205.222397 
	C161.541473,203.962296 161.075592,202.577225 160.928543,201.249634 
	C159.652039,202.178436 158.375534,203.107239 156.237259,204.006042 
M197.476105,224.523392 
	C200.142929,225.495529 201.496735,224.509705 202.020859,221.760696 
	C202.918549,217.052277 203.923828,212.361343 205.015854,207.693924 
	C205.988937,203.534897 205.562851,200.409866 200.056808,200.637009 
	C200.320877,198.013367 200.543243,195.803970 200.765610,193.594574 
	C200.421631,193.275940 200.077667,192.957321 199.733688,192.638687 
	C198.556152,193.519470 196.625702,194.194138 196.319321,195.313385 
	C193.701828,204.875046 191.378922,214.517349 188.680359,225.282333 
	C191.525955,224.641205 193.168335,224.271164 195.524612,223.955811 
	C196.000641,223.973938 196.476685,223.992081 197.476105,224.523392 
M138.431351,218.465057 
	C138.431351,220.357819 138.431351,222.250565 138.431351,224.255264 
	C141.776733,225.937988 143.230850,224.368576 143.864914,221.137299 
	C144.785812,216.444412 145.820663,211.773895 146.744858,207.081635 
	C147.621338,202.631607 148.417923,198.165817 149.386490,192.973389 
	C140.045700,192.834320 142.612457,201.805405 137.983063,205.124710 
	C137.983063,201.906906 138.191727,198.973618 137.876556,196.097733 
	C137.756683,195.004150 136.414993,193.194199 135.661713,193.210052 
	C134.378403,193.237061 132.226944,194.230896 131.990540,195.197662 
	C129.825562,204.051193 127.947166,212.976868 126.145805,221.913879 
	C125.978470,222.744095 126.918404,223.797470 127.344200,224.747223 
	C128.291809,224.092712 129.670456,223.642395 130.097351,222.741211 
	C130.988159,220.860718 131.376175,218.742050 131.970749,216.721222 
	C132.220917,216.795074 132.471100,216.868927 132.721268,216.942780 
	C132.968582,219.470139 133.215912,221.997513 133.463242,224.524872 
	C133.868439,224.589951 134.273636,224.655045 134.678833,224.720123 
	C135.689224,222.616867 136.699615,220.513611 138.431351,218.465057 
M167.562195,221.261551 
	C167.639526,220.534332 167.438187,219.484360 167.842209,219.135498 
	C169.636093,217.586517 172.390060,216.634842 173.346603,214.736435 
	C175.421692,210.618057 176.610046,206.052902 178.150543,201.699905 
	C176.933914,201.641937 175.250839,201.914658 173.831299,201.424377 
	C170.317398,200.210785 166.988190,200.996475 165.527481,203.958084 
	C163.722900,207.616913 163.164871,211.903152 162.179382,215.945419 
	C161.897079,217.103363 162.200989,218.410370 161.887390,219.553345 
	C160.995117,222.805603 159.642166,225.961258 159.087769,229.258713 
	C158.914810,230.287384 160.533295,232.442566 161.639053,232.686020 
	C163.820847,233.166351 166.749039,233.473328 168.394424,232.382568 
	C170.594101,230.924362 172.353363,228.237473 173.229889,225.706940 
	C173.478363,224.989594 169.991577,222.978424 167.562195,221.261551 
M192.729050,196.318893 
	C192.150314,195.241714 191.571579,194.164551 190.992828,193.087372 
	C190.122772,193.928604 189.043060,194.641083 188.429565,195.639908 
	C187.391495,197.329987 186.672775,200.732193 185.776810,200.746613 
	C180.128952,200.837601 179.594421,204.681488 178.857666,208.743805 
	C178.209106,212.319855 177.318726,215.852463 176.517746,219.400330 
	C175.977020,221.795441 175.662094,224.927490 178.813766,224.646301 
	C181.543671,224.402740 186.070740,227.707291 187.191269,221.715912 
	C188.734726,213.463120 190.638412,205.277679 192.729050,196.318893 
M213.337189,209.799881 
	C208.802750,212.269073 204.608337,215.124802 205.108200,221.080750 
	C205.221191,222.426987 207.410034,224.873108 207.791275,224.718033 
	C210.466202,223.630081 214.674255,227.367340 215.946594,222.680145 
	C217.463623,217.091522 218.573685,211.366211 219.436920,205.636368 
	C219.931564,202.352966 217.854126,200.617691 214.558426,201.024551 
	C210.890366,201.477386 208.819366,203.672638 208.135788,208.643295 
	C210.805206,207.375061 212.628967,206.508606 215.155579,205.308228 
	C214.603088,206.990799 214.225372,208.141113 213.337189,209.799881 
z"/>
<path fill="#F67376" opacity="1.000000" stroke="none" 
	d="
M104.984589,187.047577 
	C98.830742,186.988586 92.637505,187.311157 86.542534,186.681900 
	C84.120735,186.431854 81.257172,184.531952 79.848495,182.509781 
	C78.929863,181.191055 79.537796,177.596161 80.787971,176.296890 
	C82.238083,174.789825 85.137619,174.065323 87.412369,174.055908 
	C120.187988,173.920013 152.964340,173.961334 185.740509,173.961151 
	C208.367722,173.961029 230.994919,173.954178 253.622131,173.968948 
	C259.420807,173.972733 261.960480,175.862503 261.999023,180.089569 
	C262.039093,184.489761 259.252289,186.728958 253.418839,186.881454 
	C250.259598,186.964035 247.097275,186.928711 243.007202,186.933472 
	C221.471298,186.904770 200.864502,186.859680 180.257797,186.881180 
	C155.166687,186.907364 130.075653,186.989594 104.984589,187.047577 
z"/>
<path fill="#F67174" opacity="1.000000" stroke="none" 
	d="
M214.000000,145.997009 
	C227.147919,145.997604 239.797150,145.904160 252.442566,146.082611 
	C254.811172,146.116043 257.731110,146.598419 259.359589,148.042801 
	C260.877045,149.388687 261.996124,152.564133 261.479065,154.432983 
	C260.967712,156.281158 258.378937,158.361801 256.363892,158.804642 
	C253.026062,159.538208 249.417542,159.057480 245.923065,159.058243 
	C222.125015,159.063400 198.326981,159.061752 174.528931,159.057922 
	C173.031509,159.057678 171.194168,159.564209 170.108261,158.885590 
	C167.925598,157.521576 165.037125,155.763428 164.546997,153.673721 
	C164.118149,151.845261 166.130493,148.823380 167.900085,147.298431 
	C169.292480,146.098526 171.955917,146.064774 174.058884,146.048630 
	C187.205276,145.947708 200.352829,145.997284 214.000000,145.997009 
z"/>
<path fill="#DFC1C2" opacity="1.000000" stroke="none" 
	d="
M104.991928,187.302963 
	C130.075653,186.989594 155.166687,186.907364 180.257797,186.881180 
	C200.864502,186.859680 221.471298,186.904770 242.544922,186.979004 
	C242.998459,187.228439 242.985123,187.419266 242.932022,187.895035 
	C197.250824,188.140823 151.609421,188.101654 105.502647,188.065186 
	C105.024612,187.898026 105.011932,187.728180 104.991928,187.302963 
z"/>
<path fill="#F57577" opacity="1.000000" stroke="none" 
	d="
M73.788788,107.153549 
	C71.521904,103.683350 71.226112,100.139862 74.049797,97.776199 
	C76.058464,96.094780 79.518372,94.832191 81.923653,95.333847 
	C84.046326,95.776550 86.896782,98.805061 87.084152,100.901123 
	C87.314125,103.473656 85.807007,107.115685 83.795631,108.759979 
	C80.782379,111.223328 76.920685,110.725571 73.788788,107.153549 
z"/>
<path fill="#F57477" opacity="1.000000" stroke="none" 
	d="
M103.542023,95.073364 
	C107.762367,94.518265 111.359940,95.353760 112.487564,99.273560 
	C113.169106,101.642715 112.958717,105.210510 111.556801,106.973778 
	C110.136032,108.760765 106.442856,110.158142 104.315826,109.589806 
	C101.926422,108.951355 99.257408,106.265327 98.354424,103.854240 
	C96.850456,99.838470 99.539474,96.972122 103.542023,95.073364 
z"/>
<path fill="#F57477" opacity="1.000000" stroke="none" 
	d="
M129.543732,109.844604 
	C125.219292,107.944878 122.780609,104.776550 124.313278,100.671494 
	C125.184319,98.338539 127.994812,95.885811 130.429398,95.163208 
	C134.941498,93.823967 138.688660,97.098854 139.052124,101.630997 
	C139.479553,106.960464 136.252563,109.896439 129.543732,109.844604 
z"/>
<path fill="#DBCFCF" opacity="1.000000" stroke="none" 
	d="
M138.070679,218.437698 
	C136.699615,220.513611 135.689224,222.616867 134.678833,224.720123 
	C134.273636,224.655045 133.868439,224.589951 133.463242,224.524872 
	C133.215912,221.997513 132.968582,219.470139 132.721268,216.942780 
	C132.471100,216.868927 132.220917,216.795074 131.970749,216.721222 
	C131.376175,218.742050 130.988159,220.860718 130.097351,222.741211 
	C129.670456,223.642395 128.291809,224.092712 127.344208,224.747223 
	C126.918404,223.797470 125.978470,222.744095 126.145805,221.913879 
	C127.947166,212.976868 129.825562,204.051193 131.990540,195.197662 
	C132.226944,194.230896 134.378403,193.237061 135.661713,193.210052 
	C136.414993,193.194199 137.756683,195.004150 137.876556,196.097733 
	C138.191727,198.973618 137.983063,201.906906 137.983063,205.124710 
	C142.612457,201.805405 140.045700,192.834320 149.386490,192.973389 
	C148.417923,198.165817 147.621338,202.631607 146.744858,207.081635 
	C145.820663,211.773895 144.785812,216.444412 143.864914,221.137299 
	C143.230850,224.368576 141.776733,225.937988 138.431351,224.255264 
	C138.431351,222.250565 138.431351,220.357819 138.070679,218.437698 
z"/>
<path fill="#DCCDCE" opacity="1.000000" stroke="none" 
	d="
M167.890015,221.411072 
	C169.991577,222.978424 173.478363,224.989594 173.229889,225.706940 
	C172.353363,228.237473 170.594101,230.924362 168.394424,232.382568 
	C166.749039,233.473328 163.820847,233.166351 161.639053,232.686020 
	C160.533295,232.442566 158.914810,230.287384 159.087769,229.258713 
	C159.642166,225.961258 160.995117,222.805603 161.887390,219.553345 
	C162.200989,218.410370 161.897079,217.103363 162.179382,215.945419 
	C163.164871,211.903152 163.722900,207.616913 165.527481,203.958084 
	C166.988190,200.996475 170.317398,200.210785 173.831299,201.424377 
	C175.250839,201.914658 176.933914,201.641937 178.150543,201.699905 
	C176.610046,206.052902 175.421692,210.618057 173.346603,214.736435 
	C172.390060,216.634842 169.636093,217.586517 167.842209,219.135498 
	C167.438187,219.484360 167.639526,220.534332 167.890015,221.411072 
M167.923386,209.489166 
	C167.647064,211.137894 167.370758,212.786606 167.094437,214.435318 
	C167.738464,214.565140 168.382477,214.694962 169.026489,214.824768 
	C169.726959,211.824432 170.427429,208.824081 171.127899,205.823746 
	C170.586243,205.664398 170.044601,205.505051 169.502945,205.345703 
	C169.007889,206.469009 168.512848,207.592331 167.923386,209.489166 
z"/>
<path fill="#DCCDCE" opacity="1.000000" stroke="none" 
	d="
M194.810730,223.901123 
	C193.168335,224.271164 191.525955,224.641205 188.680359,225.282333 
	C191.378922,214.517349 193.701828,204.875046 196.319321,195.313385 
	C196.625702,194.194138 198.556152,193.519470 199.733688,192.638687 
	C200.077667,192.957321 200.421631,193.275940 200.765610,193.594574 
	C200.543243,195.803970 200.320877,198.013367 200.056808,200.637009 
	C205.562851,200.409866 205.988937,203.534897 205.015854,207.693924 
	C203.923828,212.361343 202.918549,217.052277 202.020859,221.760696 
	C201.496735,224.509705 200.142929,225.495529 197.305359,223.879807 
	C198.383011,217.371979 199.631409,211.507736 200.879807,205.643494 
	C200.126343,205.486038 199.372894,205.328598 198.619431,205.171143 
	C197.349869,211.414474 196.080292,217.657791 194.810730,223.901123 
z"/>
<path fill="#DBCFCF" opacity="1.000000" stroke="none" 
	d="
M192.558411,196.691132 
	C190.638412,205.277679 188.734726,213.463120 187.191269,221.715912 
	C186.070740,227.707291 181.543671,224.402740 178.813766,224.646301 
	C175.662094,224.927490 175.977020,221.795441 176.517746,219.400330 
	C177.318726,215.852463 178.209106,212.319855 178.857666,208.743805 
	C179.594421,204.681488 180.128952,200.837601 185.776810,200.746613 
	C186.672775,200.732193 187.391495,197.329987 188.429565,195.639908 
	C189.043060,194.641083 190.122772,193.928604 190.992828,193.087372 
	C191.571579,194.164551 192.150314,195.241714 192.558411,196.691132 
M185.449966,210.082855 
	C185.449966,208.546371 185.449966,207.009872 185.449966,205.473389 
	C184.919983,205.442886 184.390015,205.412369 183.860031,205.381866 
	C182.906433,210.319778 181.952835,215.257675 180.999237,220.195587 
	C181.658203,220.332169 182.317169,220.468750 182.976135,220.605347 
	C183.726013,217.357513 184.475876,214.109680 185.449966,210.082855 
z"/>
<path fill="#DCCDCE" opacity="1.000000" stroke="none" 
	d="
M157.099030,204.036041 
	C158.375534,203.107239 159.652039,202.178436 160.928558,201.249634 
	C161.075592,202.577225 161.541473,203.962296 161.314270,205.222397 
	C160.348206,210.579956 158.952484,215.867798 158.168549,221.247391 
	C157.731796,224.244476 156.746994,225.440002 153.695236,224.724518 
	C152.645264,224.478363 151.477921,224.730682 150.364273,224.758804 
	C147.264572,224.837097 145.526779,223.530594 146.213089,220.255844 
	C147.396500,214.609116 148.643295,208.971237 150.090439,203.388474 
	C150.334793,202.445770 151.744812,201.148804 152.568405,201.182587 
	C153.548233,201.222778 154.476410,202.522980 155.247467,203.945694 
	C153.971832,209.524902 152.875687,214.435638 151.779526,219.346375 
	C152.600876,219.501968 153.422241,219.657562 154.243591,219.813141 
	C155.195404,214.554108 156.147232,209.295074 157.099030,204.036041 
z"/>
<path fill="#DCCDCE" opacity="1.000000" stroke="none" 
	d="
M213.592407,209.545654 
	C214.225372,208.141113 214.603088,206.990799 215.155579,205.308228 
	C212.628967,206.508606 210.805206,207.375061 208.135788,208.643295 
	C208.819366,203.672638 210.890366,201.477386 214.558426,201.024551 
	C217.854126,200.617691 219.931564,202.352966 219.436920,205.636368 
	C218.573685,211.366211 217.463623,217.091522 215.946594,222.680145 
	C214.674255,227.367340 210.466202,223.630081 207.791275,224.718033 
	C207.410034,224.873108 205.221191,222.426987 205.108200,221.080750 
	C204.608337,215.124802 208.802750,212.269073 213.592407,209.545654 
z"/>
<path fill="#F28082" opacity="1.000000" stroke="none" 
	d="
M195.167664,223.928467 
	C196.080292,217.657791 197.349869,211.414474 198.619431,205.171143 
	C199.372894,205.328598 200.126343,205.486038 200.879807,205.643494 
	C199.631409,211.507736 198.383011,217.371979 197.043671,223.623230 
	C196.476685,223.992081 196.000641,223.973938 195.167664,223.928467 
z"/>
<path fill="#F18285" opacity="1.000000" stroke="none" 
	d="
M156.668152,204.021042 
	C156.147232,209.295074 155.195404,214.554108 154.243591,219.813141 
	C153.422241,219.657562 152.600876,219.501968 151.779526,219.346375 
	C152.875687,214.435638 153.971832,209.524902 155.221619,204.321198 
	C155.662567,204.020813 155.949921,204.013428 156.668152,204.021042 
z"/>
<path fill="#F18285" opacity="1.000000" stroke="none" 
	d="
M167.970581,209.102417 
	C168.512848,207.592331 169.007889,206.469009 169.502945,205.345703 
	C170.044601,205.505051 170.586243,205.664398 171.127899,205.823746 
	C170.427429,208.824081 169.726959,211.824432 169.026489,214.824768 
	C168.382477,214.694962 167.738464,214.565140 167.094437,214.435318 
	C167.370758,212.786606 167.647064,211.137894 167.970581,209.102417 
z"/>
<path fill="#F18285" opacity="1.000000" stroke="none" 
	d="
M185.337860,210.472351 
	C184.475876,214.109680 183.726013,217.357513 182.976135,220.605347 
	C182.317169,220.468750 181.658203,220.332169 180.999237,220.195587 
	C181.952835,215.257675 182.906433,210.319778 183.860031,205.381866 
	C184.390015,205.412369 184.919983,205.442886 185.449966,205.473389 
	C185.449966,207.009872 185.449966,208.546371 185.337860,210.472351 
z"/>
</svg>